<?xml version="1.0" standalone="no"?>
<!DOCTYPE svg PUBLIC "-//W3C//DTD SVG 20010904//EN"
 "http://www.w3.org/TR/2001/REC-SVG-20010904/DTD/svg10.dtd">
<svg version="1.0" xmlns="http://www.w3.org/2000/svg"
 width="301.000000pt" height="301.000000pt" viewBox="0 0 301.000000 301.000000"
 preserveAspectRatio="xMidYMid meet">

<g transform="translate(0.000000,301.000000) scale(0.100000,-0.100000)"
fill="#000000" stroke="none">
<path d="M1645 2926 c-107 -33 -277 -146 -420 -279 l-70 -65 34 -36 c19 -20
38 -36 42 -36 4 0 37 18 72 40 175 110 302 106 367 -10 21 -39 25 -60 28 -158
5 -138 -14 -256 -70 -432 -94 -293 -242 -560 -537 -965 l-80 -110 77 -3 77 -3
30 37 c32 39 188 252 216 294 9 14 19 23 21 20 3 -3 190 -263 417 -577 l413
-573 340 0 c254 0 337 3 332 12 -4 6 -280 382 -614 836 l-608 824 39 88 c136
314 212 600 213 800 1 166 -28 241 -109 287 -46 26 -143 30 -210 9z"/>
<path d="M795 2606 c-67 -31 -140 -113 -160 -179 -32 -107 -11 -206 61 -287
63 -69 111 -92 205 -98 66 -4 84 -1 130 20 73 33 109 66 144 130 27 48 30 62
30 143 0 73 -4 98 -22 131 -36 67 -70 101 -135 133 -80 41 -176 43 -253 7z"/>
<path d="M1205 2009 c-104 -88 -196 -166 -203 -173 -12 -12 10 -46 133 -215
81 -110 151 -201 156 -201 22 0 149 248 213 418 46 121 47 125 30 150 -21 33
-134 182 -137 181 -1 0 -87 -72 -192 -160z"/>
<path d="M688 1988 c-226 -364 -467 -864 -552 -1148 -87 -289 -94 -480 -24
-619 106 -209 296 -168 602 130 l121 118 -103 1 c-100 0 -104 -1 -181 -40
-149 -75 -210 -74 -275 1 -45 53 -61 114 -60 229 3 252 174 690 471 1214 84
147 84 149 65 168 -19 19 -20 19 -64 -54z"/>
<path d="M390 812 c-47 -23 -72 -69 -72 -134 -1 -110 51 -168 151 -168 49 0
57 3 92 39 39 39 52 81 25 81 -8 0 -21 2 -29 6 -9 3 -18 -5 -26 -25 -17 -40
-60 -57 -97 -39 -39 18 -56 54 -51 111 4 51 26 84 61 89 34 6 72 -11 84 -37 9
-20 15 -22 39 -16 37 10 33 36 -12 79 -29 27 -42 32 -82 32 -27 0 -64 -8 -83
-18z"/>
<path d="M710 723 c-23 -59 -51 -129 -61 -155 l-19 -48 34 0 c30 0 36 4 50 40
16 40 16 40 70 40 53 0 54 0 70 -40 14 -36 19 -40 51 -40 l35 0 -19 48 c-11
26 -39 94 -63 152 -42 99 -46 105 -75 108 -31 3 -31 2 -73 -105z m100 -64 c0
-5 -13 -9 -30 -9 -19 0 -28 4 -25 13 2 6 9 26 15 42 l12 30 14 -34 c8 -18 14
-37 14 -42z"/>
<path d="M1031 817 c-26 -16 -50 -53 -51 -79 0 -35 48 -76 106 -89 71 -16 93
-32 78 -56 -8 -12 -26 -19 -58 -21 -43 -3 -48 -1 -64 27 -12 23 -24 31 -44 31
-32 0 -36 -16 -13 -60 23 -45 67 -63 138 -58 50 4 64 9 84 32 51 59 18 134
-68 156 -71 17 -91 29 -87 48 3 13 13 17 48 17 37 0 47 -4 55 -22 7 -16 18
-23 37 -23 23 0 28 4 28 24 0 14 -11 37 -23 52 -20 23 -33 28 -83 31 -38 2
-68 -2 -83 -10z"/>
<path d="M1310 675 l0 -155 30 0 30 0 0 155 0 155 -30 0 -30 0 0 -155z"/>
<path d="M1487 682 c-31 -81 -57 -151 -57 -155 0 -4 14 -7 30 -7 26 0 32 6 46
40 16 40 17 40 70 40 54 0 54 0 70 -40 15 -36 20 -40 51 -40 29 0 34 3 29 18
-4 9 -32 79 -64 155 -55 134 -57 137 -87 137 -31 0 -32 -2 -88 -148z m108 5
l15 -37 -34 0 -34 0 15 40 c9 22 18 39 19 37 2 -2 10 -20 19 -40z"/>
</g>
</svg>
