<svg version="1.1" id="Layer_1" xmlns="http://www.w3.org/2000/svg" xmlns:xlink="http://www.w3.org/1999/xlink" x="0px" y="0px"
	 width="100%" viewBox="0 0 301 301" enable-background="new 0 0 301 301" xml:space="preserve">
<path fill="#FFFFFF" opacity="1.000000" stroke="none" 
	d="
M171.000000,302.000000 
	C114.000008,302.000000 57.500019,302.000000 1.000023,302.000000 
	C1.000015,201.666702 1.000015,101.333389 1.000008,1.000063 
	C101.333282,1.000042 201.666565,1.000042 301.999878,1.000021 
	C301.999939,101.333275 301.999939,201.666550 301.999969,301.999908 
	C258.500000,302.000000 215.000000,302.000000 171.000000,302.000000 
M197.011993,24.668568 
	C195.452316,19.356285 193.703476,14.381968 188.744812,10.858891 
	C181.378616,5.625278 173.663239,6.371981 165.875488,8.667410 
	C154.010818,12.164515 144.077713,19.220739 134.641144,26.929289 
	C128.076202,32.292068 121.809654,38.020142 114.922775,44.008522 
	C117.876472,46.728600 119.930916,48.961716 122.350609,50.680691 
	C123.316460,51.366829 125.375084,51.460258 126.445778,50.894787 
	C132.020493,47.950535 137.201004,44.160198 142.955154,41.674828 
	C157.604416,35.347416 167.483994,41.633022 170.146942,56.644753 
	C172.279587,68.666893 170.262924,80.214485 167.591522,91.614807 
	C158.787949,129.184296 139.714676,161.728088 117.090645,192.450867 
	C111.559685,199.961746 106.264229,207.646042 100.331367,215.995255 
	C106.204346,215.995255 111.152344,216.179352 116.069923,215.873917 
	C117.404190,215.791061 118.988243,214.487274 119.877846,213.306885 
	C127.873100,202.697800 135.738953,191.991211 144.033493,180.785431 
	C148.524734,187.198929 152.918060,193.631790 157.472168,199.948730 
	C179.030273,229.851654 200.599014,259.747131 222.287369,289.555481 
	C223.872864,291.734558 226.411377,294.727264 228.550980,294.763916 
	C250.825516,295.145721 273.109100,294.999146 295.423279,294.999146 
	C295.357208,294.429291 295.425293,294.066406 295.275970,293.863495 
	C281.209259,274.746338 267.141815,255.629700 253.040390,236.538177 
	C227.443741,201.883652 201.855728,167.222641 176.174423,132.630920 
	C173.438538,128.945801 173.528030,125.882607 175.494873,121.728508 
	C179.145218,114.018845 182.484222,106.060753 184.917679,97.897499 
	C189.618896,82.126846 194.341934,66.289970 197.563385,50.182053 
	C199.137375,42.311802 197.360092,33.771324 197.011993,24.668568 
M28.971014,258.456573 
	C27.644918,256.074219 25.968857,253.818527 25.052980,251.287720 
	C20.967985,239.999756 22.713654,228.540451 25.395435,217.424042 
	C30.409779,196.638809 38.306572,176.796112 47.842659,157.703308 
	C57.660789,138.045792 68.191566,118.744209 78.490944,99.133759 
	C74.530403,94.924271 73.882492,94.751785 71.992477,98.229469 
	C58.937469,122.251099 45.703022,146.179901 33.011414,170.392853 
	C22.853107,189.772736 15.301307,210.264633 10.275483,231.559875 
	C6.691511,246.745758 4.376657,262.192993 10.042265,277.463409 
	C14.874960,290.488892 25.088072,297.688812 39.559338,291.666565 
	C58.006721,283.989655 71.326050,269.713593 85.204338,255.000015 
	C83.391945,255.000015 82.420403,255.063095 81.459122,254.990433 
	C69.460838,254.083511 58.065582,255.389465 47.444550,261.957642 
	C41.329525,265.739258 35.034267,265.416779 28.971014,258.456573 
M76.478317,42.928684 
	C66.769768,48.768543 62.060791,58.006104 62.287361,68.676994 
	C62.566204,81.810020 69.187210,91.809166 81.862686,96.978790 
	C97.028130,103.163918 115.555534,95.125832 120.937508,79.481827 
	C124.585159,68.879051 123.144501,59.172230 116.471954,49.572506 
	C108.507584,38.114277 88.178902,34.300247 76.478317,42.928684 
M129.048111,160.541611 
	C129.882233,160.337997 131.192261,160.401794 131.479385,159.890808 
	C136.068695,151.723373 140.912689,143.664337 144.903824,135.205566 
	C148.647110,127.272095 151.617355,118.955467 154.573761,110.680954 
	C155.400223,108.367859 156.049011,104.902992 154.922272,103.182877 
	C151.437988,97.863609 146.838455,93.288498 143.119949,88.103180 
	C141.286880,85.547043 139.710571,85.224922 137.537369,87.022217 
	C125.559288,96.928307 113.656029,106.925056 101.651634,116.798950 
	C99.280518,118.749252 99.205338,120.205841 101.091133,122.716873 
	C110.358513,135.056931 119.402008,147.565125 129.048111,160.541611 
M105.875595,236.964127 
	C108.522125,237.650116 111.248955,238.128952 113.780930,239.110458 
	C115.026070,239.593124 115.910347,241.006668 116.957932,241.998962 
	C115.599922,242.998505 114.349770,244.625732 112.863876,244.881042 
	C108.224266,245.678253 105.557434,243.361588 104.346115,237.416595 
	C102.242035,238.135696 98.649651,238.603622 98.515823,239.557022 
	C98.166771,242.043732 98.656509,245.191345 100.032036,247.266479 
	C103.117714,251.921478 110.300491,253.207748 116.981308,251.047699 
	C124.970253,248.464691 127.201378,242.157776 122.636894,235.095963 
	C121.808548,233.814392 121.036621,232.496368 119.811554,230.498749 
	C125.430122,230.517868 124.089447,227.749496 123.070793,224.672302 
	C121.663651,220.421494 118.029358,219.360855 114.536629,218.280258 
	C108.884178,216.531479 101.583031,219.430603 99.663017,223.835999 
	C97.353027,229.136169 99.014267,233.020523 105.875595,236.964127 
M148.301407,250.999481 
	C149.397461,249.957687 151.150421,249.087067 151.474319,247.844070 
	C152.783127,242.821350 155.799088,241.054276 160.733963,241.981186 
	C161.691467,242.161041 162.695236,242.094727 163.614120,242.138916 
	C166.473053,251.521774 167.181793,252.030197 175.074249,250.270233 
	C171.370285,241.145798 167.505112,232.124344 164.067230,222.942886 
	C162.363831,218.393707 159.680176,216.940567 154.982758,218.454895 
	C150.870926,228.953171 146.708618,239.580368 142.331802,250.755188 
	C144.551926,250.861938 145.986984,250.930954 148.301407,250.999481 
M89.944534,235.607697 
	C87.947281,230.695099 86.097710,225.713394 83.853264,220.916443 
	C83.261353,219.651398 81.440918,218.173950 80.200737,218.188293 
	C78.445541,218.208603 75.664574,219.081207 75.123680,220.354706 
	C70.878998,230.348892 67.064537,240.525772 63.055676,250.804779 
	C71.469208,251.218704 71.469208,251.218704 74.657753,241.868347 
	C77.651016,242.039093 81.491280,241.168640 83.664963,242.685867 
	C85.877586,244.230301 86.449371,248.125488 87.658569,250.811264 
	C90.510353,250.811264 93.127907,250.811264 96.216995,250.811264 
	C94.070305,245.786713 92.062813,241.087967 89.944534,235.607697 
M61.605511,241.903000 
	C62.642487,235.742325 56.964489,239.454453 55.101894,236.574997 
	C53.568661,241.774597 51.780579,245.889679 46.047832,244.935333 
	C42.475437,244.340622 38.495289,238.903351 39.192291,234.843689 
	C39.892090,230.767685 40.889725,226.183548 45.914101,225.116333 
	C50.282684,224.188416 53.014545,226.556305 54.522289,231.665604 
	C56.768139,230.754501 59.821278,230.425476 60.636841,228.900085 
	C61.301033,227.657852 59.730827,224.604370 58.375309,223.016632 
	C54.590168,218.582932 49.627457,216.882095 43.892937,218.610352 
	C34.851826,221.335144 31.759098,226.101715 32.000103,236.548447 
	C32.179520,244.325516 37.208965,250.877762 44.230816,251.927307 
	C51.243202,252.975479 57.901623,250.567337 61.605511,241.903000 
M132.000000,232.504425 
	C132.000000,238.596344 132.000000,244.688278 132.000000,250.692627 
	C134.637390,250.692627 136.696167,250.692627 138.713425,250.692627 
	C138.713425,239.665451 138.713425,228.947800 138.713425,218.307465 
	C136.352768,218.307465 134.294205,218.307465 132.000000,218.307465 
	C132.000000,222.910858 132.000000,227.209396 132.000000,232.504425 
z"/>
<path fill="#023F8B" opacity="1.000000" stroke="none" 
	d="
M197.055847,25.101389 
	C197.360092,33.771324 199.137375,42.311802 197.563385,50.182053 
	C194.341934,66.289970 189.618896,82.126846 184.917679,97.897499 
	C182.484222,106.060753 179.145218,114.018845 175.494873,121.728508 
	C173.528030,125.882607 173.438538,128.945801 176.174423,132.630920 
	C201.855728,167.222641 227.443741,201.883652 253.040390,236.538177 
	C267.141815,255.629700 281.209259,274.746338 295.275970,293.863495 
	C295.425293,294.066406 295.357208,294.429291 295.423279,294.999146 
	C273.109100,294.999146 250.825516,295.145721 228.550980,294.763916 
	C226.411377,294.727264 223.872864,291.734558 222.287369,289.555481 
	C200.599014,259.747131 179.030273,229.851654 157.472168,199.948730 
	C152.918060,193.631790 148.524734,187.198929 144.033493,180.785431 
	C135.738953,191.991211 127.873100,202.697800 119.877846,213.306885 
	C118.988243,214.487274 117.404190,215.791061 116.069923,215.873917 
	C111.152344,216.179352 106.204346,215.995255 100.331367,215.995255 
	C106.264229,207.646042 111.559685,199.961746 117.090645,192.450867 
	C139.714676,161.728088 158.787949,129.184296 167.591522,91.614807 
	C170.262924,80.214485 172.279587,68.666893 170.146942,56.644753 
	C167.483994,41.633022 157.604416,35.347416 142.955154,41.674828 
	C137.201004,44.160198 132.020493,47.950535 126.445778,50.894787 
	C125.375084,51.460258 123.316460,51.366829 122.350609,50.680691 
	C119.930916,48.961716 117.876472,46.728600 114.922775,44.008522 
	C121.809654,38.020142 128.076202,32.292068 134.641144,26.929289 
	C144.077713,19.220739 154.010818,12.164515 165.875488,8.667410 
	C173.663239,6.371981 181.378616,5.625278 188.744812,10.858891 
	C193.703476,14.381968 195.452316,19.356285 197.055847,25.101389 
z"/>
<path fill="#023F8B" opacity="1.000000" stroke="none" 
	d="
M29.228313,258.723572 
	C35.034267,265.416779 41.329525,265.739258 47.444550,261.957642 
	C58.065582,255.389465 69.460838,254.083511 81.459122,254.990433 
	C82.420403,255.063095 83.391945,255.000015 85.204338,255.000015 
	C71.326050,269.713593 58.006721,283.989655 39.559338,291.666565 
	C25.088072,297.688812 14.874960,290.488892 10.042265,277.463409 
	C4.376657,262.192993 6.691511,246.745758 10.275483,231.559875 
	C15.301307,210.264633 22.853107,189.772736 33.011414,170.392853 
	C45.703022,146.179901 58.937469,122.251099 71.992477,98.229469 
	C73.882492,94.751785 74.530403,94.924271 78.490944,99.133759 
	C68.191566,118.744209 57.660789,138.045792 47.842659,157.703308 
	C38.306572,176.796112 30.409779,196.638809 25.395435,217.424042 
	C22.713654,228.540451 20.967985,239.999756 25.052980,251.287720 
	C25.968857,253.818527 27.644918,256.074219 29.228313,258.723572 
z"/>
<path fill="#D61518" opacity="1.000000" stroke="none" 
	d="
M76.759888,42.679573 
	C88.178902,34.300247 108.507584,38.114277 116.471954,49.572506 
	C123.144501,59.172230 124.585159,68.879051 120.937508,79.481827 
	C115.555534,95.125832 97.028130,103.163918 81.862686,96.978790 
	C69.187210,91.809166 62.566204,81.810020 62.287361,68.676994 
	C62.060791,58.006104 66.769768,48.768543 76.759888,42.679573 
z"/>
<path fill="#023F8B" opacity="1.000000" stroke="none" 
	d="
M128.786346,160.277771 
	C119.402008,147.565125 110.358513,135.056931 101.091133,122.716873 
	C99.205338,120.205841 99.280518,118.749252 101.651634,116.798950 
	C113.656029,106.925056 125.559288,96.928307 137.537369,87.022217 
	C139.710571,85.224922 141.286880,85.547043 143.119949,88.103180 
	C146.838455,93.288498 151.437988,97.863609 154.922272,103.182877 
	C156.049011,104.902992 155.400223,108.367859 154.573761,110.680954 
	C151.617355,118.955467 148.647110,127.272095 144.903824,135.205566 
	C140.912689,143.664337 136.068695,151.723373 131.479385,159.890808 
	C131.192261,160.401794 129.882233,160.337997 128.786346,160.277771 
z"/>
<path fill="#023F8B" opacity="1.000000" stroke="none" 
	d="
M105.511002,236.810760 
	C99.014267,233.020523 97.353027,229.136169 99.663017,223.835999 
	C101.583031,219.430603 108.884178,216.531479 114.536629,218.280258 
	C118.029358,219.360855 121.663651,220.421494 123.070793,224.672302 
	C124.089447,227.749496 125.430122,230.517868 119.811554,230.498749 
	C121.036621,232.496368 121.808548,233.814392 122.636894,235.095963 
	C127.201378,242.157776 124.970253,248.464691 116.981308,251.047699 
	C110.300491,253.207748 103.117714,251.921478 100.032036,247.266479 
	C98.656509,245.191345 98.166771,242.043732 98.515823,239.557022 
	C98.649651,238.603622 102.242035,238.135696 104.346115,237.416595 
	C105.557434,243.361588 108.224266,245.678253 112.863876,244.881042 
	C114.349770,244.625732 115.599922,242.998505 116.957932,241.998962 
	C115.910347,241.006668 115.026070,239.593124 113.780930,239.110458 
	C111.248955,238.128952 108.522125,237.650116 105.511002,236.810760 
M109.728210,230.006607 
	C111.763687,230.168335 113.799164,230.330063 115.834641,230.491806 
	C110.870651,223.672775 109.823158,223.526093 106.275993,227.894577 
	C107.167511,228.587906 108.056572,229.279312 109.728210,230.006607 
z"/>
<path fill="#023F8B" opacity="1.000000" stroke="none" 
	d="
M147.861725,250.999725 
	C145.986984,250.930954 144.551926,250.861938 142.331802,250.755188 
	C146.708618,239.580368 150.870926,228.953171 154.982758,218.454895 
	C159.680176,216.940567 162.363831,218.393707 164.067230,222.942886 
	C167.505112,232.124344 171.370285,241.145798 175.074249,250.270233 
	C167.181793,252.030197 166.473053,251.521774 163.614120,242.138916 
	C162.695236,242.094727 161.691467,242.161041 160.733963,241.981186 
	C155.799088,241.054276 152.783127,242.821350 151.474319,247.844070 
	C151.150421,249.087067 149.397461,249.957687 147.861725,250.999725 
M159.190811,234.943390 
	C159.314224,234.839767 159.461853,234.752960 159.550552,234.625229 
	C159.593201,234.563873 159.535278,234.338104 159.504776,234.334381 
	C158.792862,234.246857 158.078461,234.179581 157.364517,234.108551 
	C157.340759,234.264328 157.317001,234.420105 157.293259,234.575882 
	C157.695496,234.713135 158.097748,234.850388 159.190811,234.943390 
z"/>
<path fill="#023F8B" opacity="1.000000" stroke="none" 
	d="
M89.999924,235.998459 
	C92.062813,241.087967 94.070305,245.786713 96.216995,250.811264 
	C93.127907,250.811264 90.510353,250.811264 87.658569,250.811264 
	C86.449371,248.125488 85.877586,244.230301 83.664963,242.685867 
	C81.491280,241.168640 77.651016,242.039093 74.657753,241.868347 
	C71.469208,251.218704 71.469208,251.218704 63.055676,250.804779 
	C67.064537,240.525772 70.878998,230.348892 75.123680,220.354706 
	C75.664574,219.081207 78.445541,218.208603 80.200737,218.188293 
	C81.440918,218.173950 83.261353,219.651398 83.853264,220.916443 
	C86.097710,225.713394 87.947281,230.695099 89.999924,235.998459 
M78.093018,235.397583 
	C78.949585,235.469635 79.806160,235.541702 80.662727,235.613754 
	C80.663139,235.205078 80.663551,234.796402 80.663963,234.387726 
	C79.807198,234.458450 78.950424,234.529160 78.093018,235.397583 
z"/>
<path fill="#023F8B" opacity="1.000000" stroke="none" 
	d="
M61.342487,242.188431 
	C57.901623,250.567337 51.243202,252.975479 44.230816,251.927307 
	C37.208965,250.877762 32.179520,244.325516 32.000103,236.548447 
	C31.759098,226.101715 34.851826,221.335144 43.892937,218.610352 
	C49.627457,216.882095 54.590168,218.582932 58.375309,223.016632 
	C59.730827,224.604370 61.301033,227.657852 60.636841,228.900085 
	C59.821278,230.425476 56.768139,230.754501 54.522289,231.665604 
	C53.014545,226.556305 50.282684,224.188416 45.914101,225.116333 
	C40.889725,226.183548 39.892090,230.767685 39.192291,234.843689 
	C38.495289,238.903351 42.475437,244.340622 46.047832,244.935333 
	C51.780579,245.889679 53.568661,241.774597 55.101894,236.574997 
	C56.964489,239.454453 62.642487,235.742325 61.342487,242.188431 
z"/>
<path fill="#023F8B" opacity="1.000000" stroke="none" 
	d="
M132.000000,232.006180 
	C132.000000,227.209396 132.000000,222.910858 132.000000,218.307465 
	C134.294205,218.307465 136.352768,218.307465 138.713425,218.307465 
	C138.713425,228.947800 138.713425,239.665451 138.713425,250.692627 
	C136.696167,250.692627 134.637390,250.692627 132.000000,250.692627 
	C132.000000,244.688278 132.000000,238.596344 132.000000,232.006180 
z"/>
<path fill="#FFFFFF" opacity="1.000000" stroke="none" 
	d="
M109.336929,229.988678 
	C108.056572,229.279312 107.167511,228.587906 106.275993,227.894577 
	C109.823158,223.526093 110.870651,223.672775 115.834641,230.491806 
	C113.799164,230.330063 111.763687,230.168335 109.336929,229.988678 
z"/>
<path fill="#FFFFFF" opacity="1.000000" stroke="none" 
	d="
M158.845398,234.965515 
	C158.097748,234.850388 157.695496,234.713135 157.293259,234.575882 
	C157.317001,234.420105 157.340759,234.264328 157.364517,234.108551 
	C158.078461,234.179581 158.792862,234.246857 159.504776,234.334381 
	C159.535278,234.338104 159.593201,234.563873 159.550552,234.625229 
	C159.461853,234.752960 159.314224,234.839767 158.845398,234.965515 
z"/>
<path fill="#FFFFFF" opacity="1.000000" stroke="none" 
	d="
M78.093338,234.998718 
	C78.950424,234.529160 79.807198,234.458450 80.663963,234.387726 
	C80.663551,234.796402 80.663139,235.205078 80.662727,235.613754 
	C79.806160,235.541702 78.949585,235.469635 78.093338,234.998718 
z"/>
</svg>